<svg width="92" height="123" viewBox="0 0 92 123" fill="none" xmlns="http://www.w3.org/2000/svg">
<path d="M46 120.9C70.0178 120.9 89.7494 101.486 89.7494 76.5668C89.7494 70.4493 89.4446 63.8915 86.1202 53.6995C82.7958 43.5077 82.1261 42.1922 78.6109 35.898C77.1091 48.7426 69.0737 54.0958 67.0323 55.6957C67.0323 54.0312 62.1714 35.6243 54.8013 24.6108C47.5662 13.8 37.7266 6.70736 31.9571 1.89999C31.9571 11.0326 29.4389 24.6108 25.8324 31.5292C22.2259 38.4476 21.5487 38.6996 17.0439 43.8481C12.5394 48.9966 10.4718 50.5868 6.7049 56.8337C2.9382 63.0809 2.24998 71.4013 2.24998 77.5188C2.24998 102.438 21.9821 120.9 46 120.9Z" fill="black" stroke="black" stroke-width="3" stroke-linejoin="round"/>
<path d="M45.9999 114.133C67.1357 114.133 84.4994 97.3837 84.4994 75.885C84.4994 70.6072 84.2312 64.9495 81.3057 56.1564C78.3802 47.3635 77.7909 46.2285 74.6976 40.7982C73.376 51.8798 66.3048 56.4982 64.5084 57.8786C64.5084 56.4425 60.2308 40.5621 53.7451 31.0603C47.3782 21.7332 38.7193 15.6141 33.6422 11.4666C33.6422 19.3457 31.4261 31.0603 28.2525 37.029C25.0788 42.9978 24.4828 43.2152 20.5186 47.6571C16.5546 52.099 14.7351 53.4708 11.4203 58.8603C8.10557 64.2501 7.49994 71.4285 7.49994 76.7064C7.49994 98.205 24.8642 114.133 45.9999 114.133Z" fill="#09090B" stroke="url(#paint0_linear_48_66)" stroke-width="3" stroke-linejoin="round"/>
<path d="M36.1094 69.9088V88.4H31.1704V69.9088H36.1094ZM30.8628 65.0894C30.8628 64.3717 31.1134 63.7792 31.6147 63.3121C32.116 62.845 32.7882 62.6114 33.6313 62.6114C34.4631 62.6114 35.1296 62.845 35.6309 63.3121C36.1436 63.7792 36.3999 64.3717 36.3999 65.0894C36.3999 65.8072 36.1436 66.3997 35.6309 66.8668C35.1296 67.3339 34.4631 67.5675 33.6313 67.5675C32.7882 67.5675 32.116 67.3339 31.6147 66.8668C31.1134 66.3997 30.8628 65.8072 30.8628 65.0894ZM51.8833 69.9088H56.3438V87.7848C56.3438 89.471 55.9678 90.9008 55.2158 92.0743C54.4753 93.2592 53.4385 94.1536 52.1055 94.7574C50.7725 95.3727 49.223 95.6803 47.457 95.6803C46.6823 95.6803 45.862 95.5777 44.9961 95.3727C44.1416 95.1676 43.3213 94.8486 42.5352 94.4156C41.7604 93.9827 41.111 93.4358 40.5869 92.775L42.7573 89.8697C43.327 90.5305 43.9878 91.0432 44.7397 91.4078C45.4917 91.7838 46.3234 91.9718 47.2349 91.9718C48.1235 91.9718 48.8755 91.8066 49.4907 91.4762C50.106 91.1572 50.5788 90.6843 50.9092 90.0577C51.2396 89.4425 51.4048 88.6962 51.4048 87.8189V74.1812L51.8833 69.9088ZM39.4419 79.3766V79.0177C39.4419 77.6049 39.6128 76.3232 39.9546 75.1725C40.3078 74.0103 40.8034 73.0134 41.4414 72.1817C42.0908 71.35 42.877 70.7063 43.7998 70.2506C44.7227 69.7949 45.7651 69.567 46.9272 69.567C48.1577 69.567 49.1888 69.7949 50.0205 70.2506C50.8522 70.7063 51.5358 71.3557 52.0713 72.1988C52.6068 73.0305 53.0226 74.016 53.3188 75.1554C53.6265 76.2833 53.8657 77.5195 54.0366 78.8639V79.65C53.8657 80.9374 53.6094 82.1337 53.2676 83.2389C52.9258 84.344 52.4757 85.3124 51.9175 86.1441C51.3592 86.9644 50.6642 87.6025 49.8325 88.0582C49.0122 88.5139 48.0324 88.7418 46.8931 88.7418C45.7537 88.7418 44.7227 88.5082 43.7998 88.0411C42.8883 87.574 42.1079 86.9189 41.4585 86.0758C40.8091 85.2327 40.3078 84.2415 39.9546 83.1021C39.6128 81.9628 39.4419 80.721 39.4419 79.3766ZM44.3638 79.0177V79.3766C44.3638 80.1399 44.4378 80.852 44.5859 81.5128C44.734 82.1736 44.9619 82.7603 45.2695 83.273C45.5885 83.7743 45.9816 84.1674 46.4487 84.4522C46.9272 84.7257 47.4912 84.8624 48.1406 84.8624C49.0407 84.8624 49.7756 84.6744 50.3452 84.2984C50.9149 83.9111 51.3421 83.3813 51.627 82.7091C51.9118 82.0369 52.077 81.2621 52.1226 80.3849V78.1461C52.0998 77.4283 52.0029 76.7846 51.832 76.2149C51.6611 75.6339 51.4219 75.1383 51.1143 74.7281C50.8066 74.318 50.4079 73.999 49.918 73.7711C49.4281 73.5432 48.847 73.4293 48.1748 73.4293C47.5254 73.4293 46.9614 73.5774 46.4829 73.8736C46.0158 74.1585 45.6227 74.5515 45.3037 75.0528C44.9961 75.5541 44.7625 76.1466 44.603 76.8302C44.4435 77.5024 44.3638 78.2315 44.3638 79.0177Z" fill="white"/>
<path d="M60.4111 86.0245C60.4111 85.2953 60.6618 84.6858 61.1631 84.1959C61.6758 83.706 62.3537 83.461 63.1968 83.461C64.0399 83.461 64.7121 83.706 65.2134 84.1959C65.7261 84.6858 65.9824 85.2953 65.9824 86.0245C65.9824 86.7537 65.7261 87.3632 65.2134 87.8531C64.7121 88.343 64.0399 88.588 63.1968 88.588C62.3537 88.588 61.6758 88.343 61.1631 87.8531C60.6618 87.3632 60.4111 86.7537 60.4111 86.0245Z" fill="#FC208A"/>
<defs>
<linearGradient id="paint0_linear_48_66" x1="45.9997" y1="11.4666" x2="45.9997" y2="114.133" gradientUnits="userSpaceOnUse">
<stop stop-color="#FC6C0B"/>
<stop offset="1" stop-color="#FC2681"/>
</linearGradient>
</defs>
</svg>
