<svg width="500" height="309" viewBox="0 0 500 309" fill="none" xmlns="http://www.w3.org/2000/svg">
<path fill-rule="evenodd" clip-rule="evenodd" d="M250.2 0C112.217 0 0 69.1273 0 154.524C0 239.264 112.217 308.647 250.2 308.647C388.952 308.647 500 239.264 500 154.524C500 69.1264 388.952 0 250.2 0ZM250.2 29.624C379.232 29.624 483.587 85.0763 483.587 154.524C483.587 223.331 379.232 279.023 250.2 279.023C122.033 279.023 17.6143 223.331 17.6143 154.524C17.6143 85.0763 122.033 29.624 250.2 29.624ZM71.2567 96.8771V211.769H100.881V163.332H150.921V183.746H107.286V211.769H163.331L180.144 200.16V161.73L172.538 154.524L180.144 147.719V114.892L164.932 96.8781L71.2567 96.8771ZM192.154 96.8771V153.323L204.564 165.332L232.186 164.933V137.711L226.982 132.907V96.879H192.154V96.8771ZM277.022 96.8771V132.906L271.818 137.71H238.591V211.77H273.019V164.932L299.039 165.332L311.449 153.723V96.8771H277.022ZM323.459 96.8771V211.769H354.684V125.702H388.711L397.918 136.11V183.347H361.089V211.77H428.743V117.296L411.53 96.8781L323.459 96.8771ZM100.881 124.9H150.52V145.317H100.881V124.9Z" fill="#868686"/>
</svg>
