<svg width="500" height="139" viewBox="0 0 500 139" fill="none" xmlns="http://www.w3.org/2000/svg">
<path d="M0 69.45C0 31.0762 111.944 0 250 0C388.056 0 500 31.0762 500 69.45C500 107.824 388.056 138.9 250 138.9C111.944 138.9 0 107.824 0 69.45Z" fill="#E20009"/>
<path d="M117.802 94.8671L132.943 61.2094C132.943 61.2094 137.014 51.0823 146.545 51.0823H183.628L178.217 62.798H150.367C150.367 62.798 147.488 62.0533 145.85 65.429L132.546 94.8671H117.802ZM383.489 94.8671H434.422C434.422 94.8671 441.968 95.1153 446.187 85.981C449.613 78.5843 450.904 74.7618 450.904 74.7618C450.904 74.7618 452.989 67.6629 446.039 67.6629H410.892C410.892 67.6629 409.601 62.649 417.643 62.649H456.414L461.726 51.0823H411.785C411.785 51.0823 402.899 51.2312 399.821 58.0323C396.892 64.5355 393.815 70.5422 393.815 70.5422C393.815 70.5422 390.836 78.5347 399.126 78.5347H434.273C434.273 78.5347 432.983 83.4989 428.118 83.4989H388.205L383.489 94.8671ZM338.562 51.132L323.67 85.1868C323.67 85.1868 318.656 94.8671 329.13 94.8671H368.844C368.844 94.8671 377.135 95.4628 381.652 85.3357C386.17 75.2086 396.346 51.132 396.346 51.132H381.454L368.795 79.9743C368.795 79.9743 367.951 83.6478 364.575 83.6478H342.186C342.186 83.6478 339.009 83.6478 340.747 79.7261L353.306 51.132H338.562ZM324.067 35.0478H338.364L333.35 46.7138H319.102L324.067 35.0478ZM316.968 51.0823H331.116L311.557 94.9167H297.26L316.968 51.0823ZM231.781 94.8671L251.291 51.0327H298.699C298.699 51.0327 309.124 50.3377 304.706 60.5144C300.685 69.6983 289.168 94.8671 289.168 94.8671H274.275L287.828 65.1312C287.828 65.1312 289.168 62.798 284.849 62.798H260.921L246.078 94.8671H231.781ZM194.599 51.0327C185.068 51.0327 181.642 61.1598 181.642 61.1598L169.927 87.1725C169.927 87.1725 165.955 94.8671 177.323 94.8671H214.654C214.654 94.8671 223.243 95.7606 227.512 86.3285C231.831 76.8468 239.674 59.7698 239.674 59.7698C239.674 59.7698 243.695 51.0327 236.398 51.0327H194.599ZM197.677 62.7483C198.372 62.6987 198.819 62.8476 198.819 62.8476H221.505C223.689 62.8476 222.548 65.578 222.548 65.578C222.548 65.578 216.442 79.18 215.25 81.5629C214.009 83.9457 211.279 83.3996 211.279 83.3996H190.181C186.209 83.3996 187.798 80.6693 187.798 80.6693L193.705 66.2729C194.897 63.493 196.585 62.8476 197.677 62.7483ZM48.6994 94.8671L72.5774 39.7638C72.5774 39.7638 76.7474 29.3389 85.6334 29.3389H144.559L139.446 40.9552H90.0516C90.0516 40.9552 87.7681 40.5581 86.3781 43.2388C84.9881 45.9195 68.2089 83.4493 68.2089 83.4493H73.1235L83.5485 61.0108C83.5485 61.0108 87.6688 51.132 96.7037 51.132H134.78L129.766 62.649L100.377 62.798C100.377 62.798 97.8952 61.5569 95.2641 67.0176C92.9309 71.8826 82.6052 94.8671 82.6052 94.8671H48.6994Z" fill="white"/>
</svg>
