<svg width="500" height="378" viewBox="0 0 500 378" fill="none" xmlns="http://www.w3.org/2000/svg">
<path d="M215.278 294.269C215.821 293.861 215.957 293.047 215.685 292.368C178.258 211.924 131.566 136.124 76.5591 66.509C76.5591 66.509 32.8531 108.043 35.975 149.713C36.7063 159.32 39.3244 168.689 43.6797 177.283C48.035 185.877 54.042 193.528 61.357 199.799C99.4979 236.989 191.796 283.953 213.242 294.676C213.921 294.947 214.735 294.812 215.278 294.269ZM201.026 326.03C200.755 325.216 199.94 324.673 198.99 324.673L45.3405 329.966C62.0357 359.692 90.1323 382.766 119.315 375.708C139.539 370.686 185.145 338.789 200.212 327.93C201.433 326.98 201.026 326.166 201.026 326.03ZM203.333 312.321C204.148 311.099 202.791 310.014 202.791 310.014C135.331 264.407 4.48499 194.369 4.48499 194.369C0.148042 207.662 -1.06519 221.777 0.939577 235.615C2.94435 249.453 8.11312 262.643 16.0442 274.158C23.9753 285.674 34.455 295.206 46.6689 302.013C58.8827 308.82 72.5018 312.719 86.4676 313.407C88.775 313.814 177.816 313.407 201.705 313.271C202.383 313.135 202.926 312.864 203.333 312.321ZM213.513 0.135733C206.862 0.678664 188.81 4.88638 188.81 4.88638C148.09 15.3378 138.453 52.3928 138.453 52.3928C130.988 75.6031 138.589 101.257 138.589 101.257C152.162 161.522 218.943 260.743 233.33 281.51C234.281 282.596 235.095 282.188 235.095 282.188C235.909 281.917 236.588 281.238 236.588 280.288C258.848 58.7723 213.513 0.135733 213.513 0.135733ZM264.413 281.917C265.228 282.188 266.178 281.917 266.585 281.103C281.38 259.792 347.753 161.115 361.326 101.121C361.326 101.121 368.656 72.0741 361.598 52.2571C361.598 52.2571 351.554 14.6591 310.834 4.75065C310.834 4.75065 299.161 1.76453 286.673 0C286.673 0 241.067 58.6365 263.327 280.152C263.192 280.967 263.735 281.645 264.413 281.917ZM300.79 324.808C300.428 324.881 300.085 325.027 299.781 325.237C299.478 325.448 299.221 325.717 299.025 326.03C298.889 326.844 299.025 327.523 299.568 328.066C314.227 338.653 358.883 369.872 380.329 375.844C380.329 375.844 420.099 389.417 454.575 330.102L300.79 324.808ZM495.566 194.098C495.566 194.098 364.991 264.272 297.396 309.878C296.718 310.421 296.31 311.235 296.582 312.05C296.582 312.05 297.261 313.271 298.211 313.271C322.371 313.271 413.855 313.407 416.298 313C425.392 312.321 434.351 310.285 442.766 306.892C442.766 306.892 475.342 296.576 492.173 259.521C492.173 259.521 507.239 229.388 495.566 194.098ZM285.045 294.269C285.587 294.676 286.402 294.812 287.081 294.404C309.069 283.41 400.689 236.854 438.558 199.799C438.558 199.799 462.583 180.525 463.805 149.442C466.519 106.414 423.22 66.509 423.22 66.509C423.22 66.509 343.138 163.558 284.366 291.825C284.272 292.257 284.284 292.705 284.402 293.131C284.521 293.557 284.741 293.947 285.045 294.269Z" fill="#CE0E2D"/>
</svg>
