<svg width="141" height="51" viewBox="0 0 141 51" fill="none" xmlns="http://www.w3.org/2000/svg">
<path d="M51.1094 22.3254V40.8166H46.1704V22.3254H51.1094ZM45.8628 17.506C45.8628 16.7883 46.1134 16.1958 46.6147 15.7287C47.116 15.2616 47.7882 15.028 48.6313 15.028C49.4631 15.028 50.1296 15.2616 50.6309 15.7287C51.1436 16.1958 51.3999 16.7883 51.3999 17.506C51.3999 18.2238 51.1436 18.8163 50.6309 19.2834C50.1296 19.7505 49.4631 19.9841 48.6313 19.9841C47.7882 19.9841 47.116 19.7505 46.6147 19.2834C46.1134 18.8163 45.8628 18.2238 45.8628 17.506ZM66.8833 22.3254H71.3438V40.2014C71.3438 41.8876 70.9678 43.3174 70.2158 44.4909C69.4753 45.6758 68.4385 46.5702 67.1055 47.174C65.7725 47.7892 64.223 48.0969 62.457 48.0969C61.6823 48.0969 60.862 47.9943 59.9961 47.7892C59.1416 47.5842 58.3213 47.2652 57.5352 46.8322C56.7604 46.3993 56.111 45.8524 55.5869 45.1916L57.7573 42.2863C58.327 42.9471 58.9878 43.4598 59.7397 43.8244C60.4917 44.2004 61.3234 44.3884 62.2349 44.3884C63.1235 44.3884 63.8755 44.2232 64.4907 43.8928C65.106 43.5738 65.5788 43.1009 65.9092 42.4743C66.2396 41.8591 66.4048 41.1128 66.4048 40.2355V26.5978L66.8833 22.3254ZM54.4419 31.7932V31.4343C54.4419 30.0215 54.6128 28.7398 54.9546 27.5891C55.3078 26.4269 55.8034 25.43 56.4414 24.5983C57.0908 23.7666 57.877 23.1229 58.7998 22.6672C59.7227 22.2114 60.7651 21.9836 61.9272 21.9836C63.1577 21.9836 64.1888 22.2114 65.0205 22.6672C65.8522 23.1229 66.5358 23.7723 67.0713 24.6154C67.6068 25.4471 68.0226 26.4326 68.3188 27.572C68.6265 28.6999 68.8657 29.9361 69.0366 31.2805V32.0666C68.8657 33.354 68.6094 34.5503 68.2676 35.6555C67.9258 36.7606 67.4757 37.729 66.9175 38.5607C66.3592 39.381 65.6642 40.0191 64.8325 40.4748C64.0122 40.9305 63.0324 41.1584 61.8931 41.1584C60.7537 41.1584 59.7227 40.9248 58.7998 40.4577C57.8883 39.9906 57.1079 39.3355 56.4585 38.4924C55.8091 37.6493 55.3078 36.6581 54.9546 35.5187C54.6128 34.3794 54.4419 33.1376 54.4419 31.7932ZM59.3638 31.4343V31.7932C59.3638 32.5565 59.4378 33.2686 59.5859 33.9294C59.734 34.5902 59.9619 35.1769 60.2695 35.6896C60.5885 36.1909 60.9816 36.584 61.4487 36.8688C61.9272 37.1423 62.4912 37.279 63.1406 37.279C64.0407 37.279 64.7756 37.091 65.3452 36.715C65.9149 36.3277 66.3421 35.7979 66.627 35.1257C66.9118 34.4535 67.077 33.6787 67.1226 32.8015V30.5627C67.0998 29.8449 67.0029 29.2012 66.832 28.6315C66.6611 28.0505 66.4219 27.5549 66.1143 27.1447C65.8066 26.7346 65.4079 26.4155 64.918 26.1877C64.4281 25.9598 63.847 25.8459 63.1748 25.8459C62.5254 25.8459 61.9614 25.994 61.4829 26.2902C61.0158 26.5751 60.6227 26.9681 60.3037 27.4694C59.9961 27.9707 59.7625 28.5632 59.603 29.2468C59.4435 29.919 59.3638 30.6481 59.3638 31.4343ZM79.9912 26.2731V40.8166H75.0693V22.3254H79.6836L79.9912 26.2731ZM79.2734 30.9216H77.9404C77.9404 29.5544 78.117 28.3239 78.4702 27.2302C78.8234 26.125 79.319 25.1851 79.957 24.4103C80.5951 23.6242 81.3527 23.0261 82.23 22.6159C83.1187 22.1944 84.1099 21.9836 85.2036 21.9836C86.0695 21.9836 86.8613 22.1089 87.5791 22.3596C88.2969 22.6102 88.9121 23.009 89.4248 23.5558C89.9489 24.1027 90.3477 24.8262 90.6211 25.7263C90.9059 26.6263 91.0483 27.7258 91.0483 29.0246V40.8166H86.0923V29.0075C86.0923 28.1872 85.9784 27.5492 85.7505 27.0934C85.5226 26.6377 85.1865 26.3187 84.7422 26.1364C84.3092 25.9427 83.7738 25.8459 83.1357 25.8459C82.4749 25.8459 81.8996 25.9769 81.4097 26.239C80.9312 26.501 80.5324 26.8656 80.2134 27.3327C79.9058 27.7884 79.6722 28.3239 79.5127 28.9391C79.3532 29.5544 79.2734 30.2152 79.2734 30.9216ZM105.729 36.3903V22.3254H110.65V40.8166H106.019L105.729 36.3903ZM106.275 32.5964L107.728 32.5622C107.728 33.7927 107.586 34.9377 107.301 35.9973C107.016 37.0454 106.589 37.9569 106.019 38.7316C105.449 39.495 104.732 40.0931 103.866 40.5261C103 40.9476 101.98 41.1584 100.807 41.1584C99.9066 41.1584 99.0749 41.0331 98.3115 40.7824C97.5596 40.5204 96.9102 40.1159 96.3633 39.569C95.8278 39.0108 95.4062 38.2987 95.0986 37.4328C94.8024 36.5555 94.6543 35.5016 94.6543 34.2712V22.3254H99.5762V34.3054C99.5762 34.8522 99.6388 35.3137 99.7642 35.6896C99.9009 36.0656 100.089 36.3732 100.328 36.6125C100.567 36.8517 100.847 37.0226 101.166 37.1252C101.496 37.2277 101.861 37.279 102.259 37.279C103.273 37.279 104.071 37.0739 104.652 36.6638C105.244 36.2536 105.66 35.6953 105.899 34.989C106.15 34.2712 106.275 33.4737 106.275 32.5964ZM124.408 35.7067C124.408 35.3535 124.305 35.0345 124.1 34.7497C123.895 34.4649 123.513 34.2028 122.955 33.9636C122.408 33.7129 121.616 33.485 120.58 33.28C119.645 33.0749 118.774 32.8185 117.965 32.5109C117.167 32.1919 116.472 31.8102 115.88 31.3659C115.299 30.9216 114.843 30.3975 114.513 29.7936C114.182 29.1784 114.017 28.4777 114.017 27.6916C114.017 26.9168 114.182 26.1877 114.513 25.5041C114.854 24.8205 115.339 24.2167 115.965 23.6926C116.603 23.1571 117.378 22.7412 118.29 22.445C119.212 22.1374 120.249 21.9836 121.4 21.9836C123.006 21.9836 124.385 22.2399 125.536 22.7526C126.698 23.2653 127.586 23.9717 128.202 24.8718C128.828 25.7604 129.142 26.7744 129.142 27.9138H124.22C124.22 27.4352 124.117 27.008 123.912 26.632C123.718 26.2446 123.411 25.9427 122.989 25.7263C122.579 25.4984 122.044 25.3845 121.383 25.3845C120.836 25.3845 120.363 25.4813 119.964 25.675C119.566 25.8573 119.258 26.1079 119.042 26.4269C118.836 26.7346 118.734 27.0764 118.734 27.4523C118.734 27.7372 118.791 27.9935 118.905 28.2214C119.03 28.4378 119.229 28.6372 119.503 28.8195C119.776 29.0018 120.13 29.1727 120.562 29.3322C121.007 29.4803 121.554 29.617 122.203 29.7424C123.536 30.0158 124.727 30.3747 125.775 30.819C126.823 31.252 127.655 31.8444 128.27 32.5964C128.885 33.3369 129.193 34.3111 129.193 35.5187C129.193 36.3391 129.011 37.091 128.646 37.7746C128.281 38.4582 127.757 39.0563 127.074 39.569C126.39 40.0703 125.57 40.4634 124.613 40.7482C123.667 41.0217 122.602 41.1584 121.417 41.1584C119.697 41.1584 118.238 40.8508 117.042 40.2355C115.857 39.6203 114.957 38.8399 114.342 37.8942C113.738 36.9372 113.436 35.9574 113.436 34.9548H118.102C118.124 35.627 118.295 36.1682 118.614 36.5783C118.945 36.9885 119.361 37.2847 119.862 37.467C120.375 37.6493 120.927 37.7404 121.52 37.7404C122.158 37.7404 122.687 37.655 123.109 37.4841C123.53 37.3018 123.849 37.0625 124.066 36.7663C124.294 36.4587 124.408 36.1055 124.408 35.7067Z" fill="#F8FAFC"/>
<path d="M132.628 38.4411C132.628 37.7119 132.879 37.1024 133.38 36.6125C133.893 36.1226 134.57 35.8776 135.414 35.8776C136.257 35.8776 136.929 36.1226 137.43 36.6125C137.943 37.1024 138.199 37.7119 138.199 38.4411C138.199 39.1703 137.943 39.7798 137.43 40.2697C136.929 40.7596 136.257 41.0046 135.414 41.0046C134.57 41.0046 133.893 40.7596 133.38 40.2697C132.879 39.7798 132.628 39.1703 132.628 38.4411Z" fill="#FC208A"/>
<path d="M25 46.75C33.5778 46.75 40.6248 39.8163 40.6248 30.9167C40.6248 28.7319 40.5159 26.3898 39.3286 22.7498C38.1413 19.1099 37.9022 18.6401 36.6468 16.3921C36.1104 20.9795 33.2406 22.8913 32.5116 23.4628C32.5116 22.8683 30.7755 16.2944 28.1433 12.361C25.5594 8.5 22.0452 5.96691 19.9847 4.25C19.9847 7.51163 19.0853 12.361 17.7973 14.8319C16.5093 17.3027 16.2674 17.3927 14.6585 19.2315C13.0498 21.0702 12.3114 21.6381 10.966 23.8692C9.62079 26.1003 9.375 29.0719 9.375 31.2567C9.375 40.1563 16.4222 46.75 25 46.75Z" fill="black" stroke="black" stroke-width="3" stroke-linejoin="round"/>
<path d="M25 44.3333C32.5485 44.3333 38.7498 38.3513 38.7498 30.6733C38.7498 28.7883 38.654 26.7677 37.6092 23.6273C36.5644 20.487 36.3539 20.0816 35.2492 18.1422C34.7772 22.0999 32.2517 23.7494 31.6102 24.2424C31.6102 23.7295 30.0825 18.0579 27.7661 14.6644C25.4922 11.3333 22.3998 9.14792 20.5865 7.66666C20.5865 10.4806 19.7951 14.6644 18.6616 16.7961C17.5282 18.9278 17.3153 19.0055 15.8995 20.5918C14.4838 22.1782 13.834 22.6682 12.6501 24.593C11.4663 26.5179 11.25 29.0816 11.25 30.9666C11.25 38.6447 17.4515 44.3333 25 44.3333Z" fill="#09090B" stroke="url(#paint0_linear_48_43)" stroke-width="3" stroke-linejoin="round"/>
<defs>
<linearGradient id="paint0_linear_48_43" x1="24.9999" y1="7.66666" x2="24.9999" y2="44.3333" gradientUnits="userSpaceOnUse">
<stop stop-color="#FC6C0B"/>
<stop offset="1" stop-color="#FC2681"/>
</linearGradient>
</defs>
</svg>
