<svg width="306" height="139" viewBox="0 0 306 139" fill="none" xmlns="http://www.w3.org/2000/svg">
<path d="M126.219 81.0176V118H116.341V81.0176H126.219ZM115.726 71.3789C115.726 69.9434 116.227 68.7585 117.229 67.8242C118.232 66.89 119.576 66.4229 121.263 66.4229C122.926 66.4229 124.259 66.89 125.262 67.8242C126.287 68.7585 126.8 69.9434 126.8 71.3789C126.8 72.8145 126.287 73.9993 125.262 74.9336C124.259 75.8678 122.926 76.335 121.263 76.335C119.576 76.335 118.232 75.8678 117.229 74.9336C116.227 73.9993 115.726 72.8145 115.726 71.3789ZM157.767 81.0176H166.688V116.77C166.688 120.142 165.936 123.002 164.432 125.349C162.951 127.718 160.877 129.507 158.211 130.715C155.545 131.945 152.446 132.561 148.914 132.561C147.365 132.561 145.724 132.355 143.992 131.945C142.283 131.535 140.643 130.897 139.07 130.031C137.521 129.165 136.222 128.072 135.174 126.75L139.515 120.939C140.654 122.261 141.976 123.286 143.479 124.016C144.983 124.768 146.647 125.144 148.47 125.144C150.247 125.144 151.751 124.813 152.981 124.152C154.212 123.514 155.158 122.569 155.818 121.315C156.479 120.085 156.81 118.592 156.81 116.838V89.5625L157.767 81.0176ZM132.884 99.9531V99.2354C132.884 96.4098 133.226 93.8464 133.909 91.5449C134.616 89.2207 135.607 87.2269 136.883 85.5635C138.182 83.9001 139.754 82.6126 141.6 81.7012C143.445 80.7897 145.53 80.334 147.854 80.334C150.315 80.334 152.378 80.7897 154.041 81.7012C155.704 82.6126 157.072 83.9115 158.143 85.5977C159.214 87.2611 160.045 89.2321 160.638 91.5107C161.253 93.7666 161.731 96.2389 162.073 98.9277V100.5C161.731 103.075 161.219 105.467 160.535 107.678C159.852 109.888 158.951 111.825 157.835 113.488C156.718 115.129 155.328 116.405 153.665 117.316C152.024 118.228 150.065 118.684 147.786 118.684C145.507 118.684 143.445 118.216 141.6 117.282C139.777 116.348 138.216 115.038 136.917 113.352C135.618 111.665 134.616 109.683 133.909 107.404C133.226 105.126 132.884 102.642 132.884 99.9531ZM142.728 99.2354V99.9531C142.728 101.48 142.876 102.904 143.172 104.226C143.468 105.547 143.924 106.721 144.539 107.746C145.177 108.749 145.963 109.535 146.897 110.104C147.854 110.651 148.982 110.925 150.281 110.925C152.081 110.925 153.551 110.549 154.69 109.797C155.83 109.022 156.684 107.963 157.254 106.618C157.824 105.274 158.154 103.724 158.245 101.97V97.4922C158.2 96.0566 158.006 94.7692 157.664 93.6299C157.322 92.4678 156.844 91.4766 156.229 90.6562C155.613 89.8359 154.816 89.1979 153.836 88.7422C152.856 88.2865 151.694 88.0586 150.35 88.0586C149.051 88.0586 147.923 88.3548 146.966 88.9473C146.032 89.5169 145.245 90.3031 144.607 91.3057C143.992 92.3083 143.525 93.4932 143.206 94.8604C142.887 96.2048 142.728 97.6631 142.728 99.2354ZM183.982 88.9131V118H174.139V81.0176H183.367L183.982 88.9131ZM182.547 98.21H179.881C179.881 95.4756 180.234 93.0146 180.94 90.8271C181.647 88.6169 182.638 86.737 183.914 85.1875C185.19 83.6152 186.705 82.4189 188.46 81.5986C190.237 80.7555 192.22 80.334 194.407 80.334C196.139 80.334 197.723 80.5846 199.158 81.0859C200.594 81.5872 201.824 82.3848 202.85 83.4785C203.898 84.5723 204.695 86.0192 205.242 87.8193C205.812 89.6195 206.097 91.8184 206.097 94.416V118H196.185V94.3818C196.185 92.7412 195.957 91.4652 195.501 90.5537C195.045 89.6423 194.373 89.0042 193.484 88.6396C192.618 88.2523 191.548 88.0586 190.271 88.0586C188.95 88.0586 187.799 88.3206 186.819 88.8447C185.862 89.3688 185.065 90.098 184.427 91.0322C183.812 91.9437 183.344 93.0146 183.025 94.2451C182.706 95.4756 182.547 96.7972 182.547 98.21ZM235.457 109.147V81.0176H245.301V118H236.038L235.457 109.147ZM236.551 101.56L239.456 101.491C239.456 103.952 239.171 106.242 238.602 108.361C238.032 110.458 237.177 112.281 236.038 113.83C234.899 115.357 233.463 116.553 231.731 117.419C230 118.262 227.96 118.684 225.613 118.684C223.813 118.684 222.15 118.433 220.623 117.932C219.119 117.408 217.82 116.599 216.727 115.505C215.656 114.388 214.812 112.964 214.197 111.232C213.605 109.478 213.309 107.37 213.309 104.909V81.0176H223.152V104.978C223.152 106.071 223.278 106.994 223.528 107.746C223.802 108.498 224.178 109.113 224.656 109.592C225.135 110.07 225.693 110.412 226.331 110.617C226.992 110.822 227.721 110.925 228.519 110.925C230.547 110.925 232.142 110.515 233.304 109.694C234.489 108.874 235.32 107.757 235.799 106.345C236.3 104.909 236.551 103.314 236.551 101.56ZM272.815 107.78C272.815 107.074 272.61 106.436 272.2 105.866C271.79 105.297 271.027 104.772 269.91 104.294C268.816 103.793 267.233 103.337 265.159 102.927C263.291 102.517 261.548 102.004 259.93 101.389C258.335 100.751 256.945 99.9873 255.76 99.0986C254.598 98.21 253.686 97.1618 253.025 95.9541C252.365 94.7236 252.034 93.3223 252.034 91.75C252.034 90.2005 252.365 88.7422 253.025 87.375C253.709 86.0078 254.677 84.8001 255.931 83.752C257.207 82.681 258.756 81.8493 260.579 81.2568C262.425 80.6416 264.498 80.334 266.8 80.334C270.013 80.334 272.77 80.8467 275.071 81.8721C277.396 82.8975 279.173 84.3102 280.403 86.1104C281.657 87.8877 282.283 89.9157 282.283 92.1943H272.439C272.439 91.2373 272.234 90.3828 271.824 89.6309C271.437 88.8561 270.822 88.2523 269.979 87.8193C269.158 87.3636 268.087 87.1357 266.766 87.1357C265.672 87.1357 264.726 87.3294 263.929 87.7168C263.131 88.0814 262.516 88.5827 262.083 89.2207C261.673 89.8359 261.468 90.5195 261.468 91.2715C261.468 91.8411 261.582 92.3538 261.81 92.8096C262.06 93.2425 262.459 93.6413 263.006 94.0059C263.553 94.3704 264.259 94.7122 265.125 95.0312C266.014 95.3275 267.107 95.6009 268.406 95.8516C271.072 96.3984 273.453 97.1162 275.55 98.0049C277.646 98.8708 279.31 100.056 280.54 101.56C281.771 103.041 282.386 104.989 282.386 107.404C282.386 109.045 282.021 110.549 281.292 111.916C280.563 113.283 279.515 114.479 278.147 115.505C276.78 116.507 275.14 117.294 273.226 117.863C271.334 118.41 269.204 118.684 266.834 118.684C263.393 118.684 260.477 118.068 258.084 116.838C255.714 115.607 253.914 114.047 252.684 112.155C251.476 110.241 250.872 108.282 250.872 106.276H260.203C260.249 107.621 260.59 108.703 261.229 109.523C261.889 110.344 262.721 110.936 263.724 111.301C264.749 111.665 265.854 111.848 267.039 111.848C268.315 111.848 269.375 111.677 270.218 111.335C271.061 110.97 271.699 110.492 272.132 109.899C272.588 109.284 272.815 108.578 272.815 107.78Z" fill="#F8FAFC"/>
<path d="M289.256 113.249C289.256 111.791 289.757 110.572 290.76 109.592C291.785 108.612 293.141 108.122 294.827 108.122C296.513 108.122 297.858 108.612 298.86 109.592C299.886 110.572 300.398 111.791 300.398 113.249C300.398 114.707 299.886 115.926 298.86 116.906C297.858 117.886 296.513 118.376 294.827 118.376C293.141 118.376 291.785 117.886 290.76 116.906C289.757 115.926 289.256 114.707 289.256 113.249Z" fill="#FC208A"/>
<path d="M51.5003 136.7C78.675 136.7 101 114.734 101 86.5398C101 79.6183 100.655 72.1986 96.8938 60.6669C93.1324 49.1356 92.3747 47.6471 88.3975 40.5256C86.6984 55.0584 77.6068 61.1153 75.2971 62.9255C75.2971 61.0422 69.7973 40.216 61.4585 27.7549C53.2724 15.5231 42.1395 7.49828 35.6117 2.05905C35.6117 12.392 32.7625 27.7549 28.682 35.5826C24.6015 43.4103 23.8353 43.6954 18.7384 49.5207C13.6418 55.3459 11.3024 57.145 7.04045 64.213C2.77867 71.2813 2 80.6954 2 87.617C2 115.811 24.3256 136.7 51.5003 136.7Z" fill="black" stroke="black" stroke-width="3" stroke-linejoin="round"/>
<path d="M51.5001 129.044C75.4139 129.044 95.0598 110.093 95.0598 85.7685C95.0598 79.7969 94.7564 73.3956 91.4464 63.4467C88.1364 53.4981 87.4696 52.214 83.9697 46.0699C82.4744 58.6081 74.4738 63.8335 72.4413 65.3953C72.4413 63.7705 67.6015 45.8028 60.2633 35.0521C53.0596 24.4992 43.2626 17.5758 37.5181 12.8831C37.5181 21.7978 35.0108 35.0521 31.42 41.8054C27.8292 48.5587 27.1548 48.8047 22.6696 53.8304C18.1846 58.8561 16.126 60.4083 12.3754 66.5061C8.62505 72.6043 7.93982 80.7262 7.93982 86.6978C7.93982 111.022 27.5864 129.044 51.5001 129.044Z" fill="url(#paint0_linear_48_43)" stroke="url(#paint1_linear_48_43)" stroke-width="3" stroke-linejoin="round"/>
<defs>
<linearGradient id="paint0_linear_48_43" x1="36.0834" y1="57.6506" x2="51.4998" y2="129.044" gradientUnits="userSpaceOnUse">
<stop stop-color="#FC6A0F"/>
<stop offset="1" stop-color="#FB10A4"/>
</linearGradient>
<linearGradient id="paint1_linear_48_43" x1="51.4998" y1="12.8831" x2="51.4998" y2="129.044" gradientUnits="userSpaceOnUse">
<stop stop-color="#FC6C0B"/>
<stop offset="1" stop-color="#FC2681"/>
</linearGradient>
</defs>
</svg>
