<svg width="112" height="57" viewBox="0 0 112 57" fill="none" xmlns="http://www.w3.org/2000/svg">
<path d="M22.1093 26.5088V45H17.1703V26.5088H22.1093ZM16.8627 21.6894C16.8627 20.9717 17.1133 20.3792 17.6146 19.9121C18.1159 19.445 18.7881 19.2114 19.6312 19.2114C20.4629 19.2114 21.1294 19.445 21.6307 19.9121C22.1434 20.3792 22.3998 20.9717 22.3998 21.6894C22.3998 22.4072 22.1434 22.9997 21.6307 23.4668C21.1294 23.9339 20.4629 24.1675 19.6312 24.1675C18.7881 24.1675 18.1159 23.9339 17.6146 23.4668C17.1133 22.9997 16.8627 22.4072 16.8627 21.6894ZM37.8832 26.5088H42.3436V44.3848C42.3436 46.071 41.9677 47.5008 41.2157 48.6743C40.4751 49.8592 39.4384 50.7536 38.1053 51.3574C36.7723 51.9726 35.2229 52.2803 33.4569 52.2803C32.6822 52.2803 31.8619 52.1777 30.996 51.9726C30.1415 51.7676 29.3212 51.4486 28.535 51.0156C27.7603 50.5827 27.1109 50.0358 26.5868 49.375L28.7572 46.4697C29.3269 47.1305 29.9877 47.6432 30.7396 48.0078C31.4916 48.3838 32.3233 48.5718 33.2347 48.5718C34.1234 48.5718 34.8754 48.4066 35.4906 48.0762C36.1058 47.7572 36.5787 47.2843 36.9091 46.6577C37.2395 46.0425 37.4047 45.2962 37.4047 44.4189V30.7812L37.8832 26.5088ZM25.4418 35.9766V35.6177C25.4418 34.2049 25.6127 32.9232 25.9545 31.7725C26.3077 30.6103 26.8033 29.6134 27.4413 28.7817C28.0907 27.95 28.8768 27.3063 29.7997 26.8506C30.7225 26.3948 31.765 26.167 32.9271 26.167C34.1576 26.167 35.1887 26.3948 36.0204 26.8506C36.8521 27.3063 37.5357 27.9557 38.0712 28.7988C38.6066 29.6305 39.0225 30.616 39.3187 31.7554C39.6263 32.8833 39.8656 34.1195 40.0365 35.4639V36.25C39.8656 37.5374 39.6093 38.7337 39.2675 39.8389C38.9257 40.944 38.4756 41.9124 37.9174 42.7441C37.3591 43.5644 36.6641 44.2025 35.8324 44.6582C35.0121 45.1139 34.0323 45.3418 32.8929 45.3418C31.7536 45.3418 30.7225 45.1082 29.7997 44.6411C28.8882 44.174 28.1078 43.5189 27.4584 42.6758C26.809 41.8327 26.3077 40.8415 25.9545 39.7021C25.6127 38.5628 25.4418 37.321 25.4418 35.9766ZM30.3636 35.6177V35.9766C30.3636 36.7399 30.4377 37.452 30.5858 38.1128C30.7339 38.7736 30.9618 39.3603 31.2694 39.873C31.5884 40.3743 31.9815 40.7674 32.4486 41.0522C32.9271 41.3257 33.4911 41.4624 34.1405 41.4624C35.0406 41.4624 35.7754 41.2744 36.3451 40.8984C36.9148 40.5111 37.342 39.9813 37.6268 39.3091C37.9117 38.6369 38.0769 37.8621 38.1224 36.9849V34.7461C38.0997 34.0283 38.0028 33.3846 37.8319 32.8149C37.661 32.2339 37.4218 31.7383 37.1141 31.3281C36.8065 30.918 36.4078 30.599 35.9178 30.3711C35.4279 30.1432 34.8469 30.0293 34.1747 30.0293C33.5253 30.0293 32.9613 30.1774 32.4828 30.4736C32.0157 30.7585 31.6226 31.1515 31.3036 31.6528C30.996 32.1541 30.7624 32.7466 30.6029 33.4302C30.4434 34.1024 30.3636 34.8315 30.3636 35.6177ZM50.9911 30.4565V45H46.0692V26.5088H50.6835L50.9911 30.4565ZM50.2733 35.105H48.9403C48.9403 33.7378 49.1169 32.5073 49.4701 31.4136C49.8233 30.3084 50.3189 29.3685 50.9569 28.5937C51.5949 27.8076 52.3526 27.2095 53.2299 26.7993C54.1185 26.3778 55.1097 26.167 56.2035 26.167C57.0694 26.167 57.8612 26.2923 58.579 26.543C59.2968 26.7936 59.912 27.1924 60.4247 27.7393C60.9488 28.2861 61.3475 29.0096 61.621 29.9097C61.9058 30.8097 62.0482 31.9092 62.0482 33.208V45H57.0922V33.1909C57.0922 32.3706 56.9782 31.7326 56.7504 31.2768C56.5225 30.8211 56.1864 30.5021 55.7421 30.3198C55.3091 30.1261 54.7736 30.0293 54.1356 30.0293C53.4748 30.0293 52.8995 30.1603 52.4095 30.4224C51.931 30.6844 51.5323 31.049 51.2133 31.5161C50.9056 31.9718 50.6721 32.5073 50.5126 33.1226C50.3531 33.7378 50.2733 34.3986 50.2733 35.105ZM76.7284 40.5737V26.5088H81.6503V45H77.0189L76.7284 40.5737ZM77.2753 36.7798L78.7279 36.7456C78.7279 37.9761 78.5855 39.1211 78.3007 40.1807C78.0158 41.2288 77.5886 42.1403 77.0189 42.915C76.4493 43.6784 75.7315 44.2765 74.8656 44.7095C73.9997 45.131 72.98 45.3418 71.8065 45.3418C70.9065 45.3418 70.0747 45.2165 69.3114 44.9658C68.5594 44.7038 67.91 44.2993 67.3632 43.7524C66.8277 43.1942 66.4061 42.4821 66.0985 41.6162C65.8023 40.7389 65.6542 39.6851 65.6542 38.4546V26.5088H70.576V38.4888C70.576 39.0356 70.6387 39.4971 70.764 39.873C70.9008 40.249 71.0887 40.5566 71.328 40.7959C71.5673 41.0351 71.8464 41.206 72.1654 41.3086C72.4958 41.4111 72.8604 41.4624 73.2592 41.4624C74.2732 41.4624 75.0707 41.2573 75.6517 40.8472C76.2442 40.437 76.66 39.8787 76.8993 39.1724C77.1499 38.4546 77.2753 37.6571 77.2753 36.7798ZM95.4076 39.8901C95.4076 39.5369 95.3051 39.2179 95.1 38.9331C94.8949 38.6483 94.5132 38.3862 93.955 38.147C93.4081 37.8963 92.6163 37.6684 91.5795 37.4634C90.6452 37.2583 89.7736 37.0019 88.9647 36.6943C88.1672 36.3753 87.4722 35.9936 86.8798 35.5493C86.2987 35.105 85.843 34.5809 85.5126 33.977C85.1822 33.3618 85.017 32.6611 85.017 31.875C85.017 31.1003 85.1822 30.3711 85.5126 29.6875C85.8544 29.0039 86.3386 28.4001 86.9652 27.876C87.6032 27.3405 88.378 26.9246 89.2894 26.6284C90.2123 26.3208 91.2491 26.167 92.3998 26.167C94.0062 26.167 95.3848 26.4233 96.5355 26.936C97.6976 27.4487 98.5863 28.1551 99.2015 29.0552C99.8282 29.9438 100.141 30.9578 100.141 32.0972H95.2196C95.2196 31.6186 95.1171 31.1914 94.912 30.8154C94.7183 30.4281 94.4107 30.1261 93.9891 29.9097C93.579 29.6818 93.0435 29.5679 92.3827 29.5679C91.8358 29.5679 91.363 29.6647 90.9642 29.8584C90.5655 30.0407 90.2579 30.2913 90.0414 30.6103C89.8363 30.918 89.7338 31.2598 89.7338 31.6357C89.7338 31.9206 89.7907 32.1769 89.9047 32.4048C90.03 32.6212 90.2294 32.8206 90.5028 33.0029C90.7762 33.1852 91.1294 33.3561 91.5624 33.5156C92.0067 33.6637 92.5536 33.8004 93.203 33.9258C94.536 34.1992 95.7266 34.5581 96.7748 35.0024C97.823 35.4354 98.6547 36.0278 99.2699 36.7798C99.8851 37.5203 100.193 38.4945 100.193 39.7021C100.193 40.5225 100.01 41.2744 99.6459 41.958C99.2813 42.6416 98.7572 43.2397 98.0736 43.7524C97.39 44.2537 96.5697 44.6468 95.6127 44.9316C94.667 45.2051 93.6018 45.3418 92.4169 45.3418C90.6965 45.3418 89.2382 45.0342 88.0419 44.4189C86.857 43.8037 85.9569 43.0233 85.3417 42.0776C84.7378 41.1206 84.4359 40.1408 84.4359 39.1382H89.1014C89.1242 39.8104 89.2951 40.3516 89.6141 40.7617C89.9445 41.1719 90.3604 41.4681 90.8617 41.6504C91.3744 41.8327 91.927 41.9238 92.5194 41.9238C93.1574 41.9238 93.6872 41.8384 94.1088 41.6675C94.5303 41.4852 94.8493 41.2459 95.0658 40.9497C95.2937 40.6421 95.4076 40.2889 95.4076 39.8901Z" fill="#F8FAFC"/>
<path d="M103.628 42.6245C103.628 41.8953 103.878 41.2858 104.38 40.7959C104.892 40.306 105.57 40.061 106.413 40.061C107.257 40.061 107.929 40.306 108.43 40.7959C108.943 41.2858 109.199 41.8953 109.199 42.6245C109.199 43.3537 108.943 43.9632 108.43 44.4531C107.929 44.943 107.257 45.188 106.413 45.188C105.57 45.188 104.892 44.943 104.38 44.4531C103.878 43.9632 103.628 43.3537 103.628 42.6245Z" fill="#FC208A"/>
<path d="M16.7147 1.44721L23.518 3.36203C24.1825 3.54907 24.5696 4.23941 24.3826 4.90394L10.4736 54.3222C10.2866 54.9867 9.59626 55.3738 8.93172 55.1868L2.12839 53.272C1.46385 53.0849 1.07676 52.3946 1.2638 51.7301L15.1728 2.3118C15.3598 1.64726 16.0501 1.26017 16.7147 1.44721Z" fill="url(#paint0_linear_1_54)" stroke="black" stroke-width="1.5"/>
<defs>
<linearGradient id="paint0_linear_1_54" x1="20.3195" y1="1.68267" x2="5.32686" y2="54.9513" gradientUnits="userSpaceOnUse">
<stop stop-color="#FC7004"/>
<stop offset="1" stop-color="#FB08B2"/>
</linearGradient>
</defs>
</svg>
