<svg width="310" height="145" viewBox="0 0 310 145" fill="none" xmlns="http://www.w3.org/2000/svg">
<path d="M130.219 81.0176V118H120.341V81.0176H130.219ZM119.726 71.3789C119.726 69.9434 120.227 68.7585 121.229 67.8242C122.232 66.89 123.576 66.4229 125.263 66.4229C126.926 66.4229 128.259 66.89 129.262 67.8242C130.287 68.7585 130.8 69.9434 130.8 71.3789C130.8 72.8145 130.287 73.9993 129.262 74.9336C128.259 75.8678 126.926 76.335 125.263 76.335C123.576 76.335 122.232 75.8678 121.229 74.9336C120.227 73.9993 119.726 72.8145 119.726 71.3789ZM161.767 81.0176H170.688V116.77C170.688 120.142 169.936 123.002 168.432 125.349C166.951 127.718 164.877 129.507 162.211 130.715C159.545 131.945 156.446 132.561 152.914 132.561C151.365 132.561 149.724 132.355 147.992 131.945C146.283 131.535 144.643 130.897 143.07 130.031C141.521 129.165 140.222 128.072 139.174 126.75L143.515 120.939C144.654 122.261 145.976 123.286 147.479 124.016C148.983 124.768 150.647 125.144 152.47 125.144C154.247 125.144 155.751 124.813 156.981 124.152C158.212 123.514 159.158 122.569 159.818 121.315C160.479 120.085 160.81 118.592 160.81 116.838V89.5625L161.767 81.0176ZM136.884 99.9531V99.2354C136.884 96.4098 137.226 93.8464 137.909 91.5449C138.616 89.2207 139.607 87.2269 140.883 85.5635C142.182 83.9001 143.754 82.6126 145.6 81.7012C147.445 80.7897 149.53 80.334 151.854 80.334C154.315 80.334 156.378 80.7897 158.041 81.7012C159.704 82.6126 161.072 83.9115 162.143 85.5977C163.214 87.2611 164.045 89.2321 164.638 91.5107C165.253 93.7666 165.731 96.2389 166.073 98.9277V100.5C165.731 103.075 165.219 105.467 164.535 107.678C163.852 109.888 162.951 111.825 161.835 113.488C160.718 115.129 159.328 116.405 157.665 117.316C156.024 118.228 154.065 118.684 151.786 118.684C149.507 118.684 147.445 118.216 145.6 117.282C143.777 116.348 142.216 115.038 140.917 113.352C139.618 111.665 138.616 109.683 137.909 107.404C137.226 105.126 136.884 102.642 136.884 99.9531ZM146.728 99.2354V99.9531C146.728 101.48 146.876 102.904 147.172 104.226C147.468 105.547 147.924 106.721 148.539 107.746C149.177 108.749 149.963 109.535 150.897 110.104C151.854 110.651 152.982 110.925 154.281 110.925C156.081 110.925 157.551 110.549 158.69 109.797C159.83 109.022 160.684 107.963 161.254 106.618C161.824 105.274 162.154 103.724 162.245 101.97V97.4922C162.2 96.0566 162.006 94.7692 161.664 93.6299C161.322 92.4678 160.844 91.4766 160.229 90.6562C159.613 89.8359 158.816 89.1979 157.836 88.7422C156.856 88.2865 155.694 88.0586 154.35 88.0586C153.051 88.0586 151.923 88.3548 150.966 88.9473C150.032 89.5169 149.245 90.3031 148.607 91.3057C147.992 92.3083 147.525 93.4932 147.206 94.8604C146.887 96.2048 146.728 97.6631 146.728 99.2354ZM187.982 88.9131V118H178.139V81.0176H187.367L187.982 88.9131ZM186.547 98.21H183.881C183.881 95.4756 184.234 93.0146 184.94 90.8271C185.647 88.6169 186.638 86.737 187.914 85.1875C189.19 83.6152 190.705 82.4189 192.46 81.5986C194.237 80.7555 196.22 80.334 198.407 80.334C200.139 80.334 201.723 80.5846 203.158 81.0859C204.594 81.5872 205.824 82.3848 206.85 83.4785C207.898 84.5723 208.695 86.0192 209.242 87.8193C209.812 89.6195 210.097 91.8184 210.097 94.416V118H200.185V94.3818C200.185 92.7412 199.957 91.4652 199.501 90.5537C199.045 89.6423 198.373 89.0042 197.484 88.6396C196.618 88.2523 195.548 88.0586 194.271 88.0586C192.95 88.0586 191.799 88.3206 190.819 88.8447C189.862 89.3688 189.065 90.098 188.427 91.0322C187.812 91.9437 187.344 93.0146 187.025 94.2451C186.706 95.4756 186.547 96.7972 186.547 98.21ZM239.457 109.147V81.0176H249.301V118H240.038L239.457 109.147ZM240.551 101.56L243.456 101.491C243.456 103.952 243.171 106.242 242.602 108.361C242.032 110.458 241.177 112.281 240.038 113.83C238.899 115.357 237.463 116.553 235.731 117.419C234 118.262 231.96 118.684 229.613 118.684C227.813 118.684 226.15 118.433 224.623 117.932C223.119 117.408 221.82 116.599 220.727 115.505C219.656 114.388 218.812 112.964 218.197 111.232C217.605 109.478 217.309 107.37 217.309 104.909V81.0176H227.152V104.978C227.152 106.071 227.278 106.994 227.528 107.746C227.802 108.498 228.178 109.113 228.656 109.592C229.135 110.07 229.693 110.412 230.331 110.617C230.992 110.822 231.721 110.925 232.519 110.925C234.547 110.925 236.142 110.515 237.304 109.694C238.489 108.874 239.32 107.757 239.799 106.345C240.3 104.909 240.551 103.314 240.551 101.56ZM276.815 107.78C276.815 107.074 276.61 106.436 276.2 105.866C275.79 105.297 275.027 104.772 273.91 104.294C272.816 103.793 271.233 103.337 269.159 102.927C267.291 102.517 265.548 102.004 263.93 101.389C262.335 100.751 260.945 99.9873 259.76 99.0986C258.598 98.21 257.686 97.1618 257.025 95.9541C256.365 94.7236 256.034 93.3223 256.034 91.75C256.034 90.2005 256.365 88.7422 257.025 87.375C257.709 86.0078 258.677 84.8001 259.931 83.752C261.207 82.681 262.756 81.8493 264.579 81.2568C266.425 80.6416 268.498 80.334 270.8 80.334C274.013 80.334 276.77 80.8467 279.071 81.8721C281.396 82.8975 283.173 84.3102 284.403 86.1104C285.657 87.8877 286.283 89.9157 286.283 92.1943H276.439C276.439 91.2373 276.234 90.3828 275.824 89.6309C275.437 88.8561 274.822 88.2523 273.979 87.8193C273.158 87.3636 272.087 87.1357 270.766 87.1357C269.672 87.1357 268.726 87.3294 267.929 87.7168C267.131 88.0814 266.516 88.5827 266.083 89.2207C265.673 89.8359 265.468 90.5195 265.468 91.2715C265.468 91.8411 265.582 92.3538 265.81 92.8096C266.06 93.2425 266.459 93.6413 267.006 94.0059C267.553 94.3704 268.259 94.7122 269.125 95.0312C270.014 95.3275 271.107 95.6009 272.406 95.8516C275.072 96.3984 277.453 97.1162 279.55 98.0049C281.646 98.8708 283.31 100.056 284.54 101.56C285.771 103.041 286.386 104.989 286.386 107.404C286.386 109.045 286.021 110.549 285.292 111.916C284.563 113.283 283.515 114.479 282.147 115.505C280.78 116.507 279.14 117.294 277.226 117.863C275.334 118.41 273.204 118.684 270.834 118.684C267.393 118.684 264.477 118.068 262.084 116.838C259.714 115.607 257.914 114.047 256.684 112.155C255.476 110.241 254.872 108.282 254.872 106.276H264.203C264.249 107.621 264.59 108.703 265.229 109.523C265.889 110.344 266.721 110.936 267.724 111.301C268.749 111.665 269.854 111.848 271.039 111.848C272.315 111.848 273.375 111.677 274.218 111.335C275.061 110.97 275.699 110.492 276.132 109.899C276.588 109.284 276.815 108.578 276.815 107.78Z" fill="#F8FAFC"/>
<path d="M293.256 113.249C293.256 111.791 293.757 110.572 294.76 109.592C295.785 108.612 297.141 108.122 298.827 108.122C300.513 108.122 301.858 108.612 302.86 109.592C303.886 110.572 304.398 111.791 304.398 113.249C304.398 114.707 303.886 115.926 302.86 116.906C301.858 117.886 300.513 118.376 298.827 118.376C297.141 118.376 295.785 117.886 294.76 116.906C293.757 115.926 293.256 114.707 293.256 113.249Z" fill="#FC208A"/>
<path d="M53.8128 142.931C82.2571 142.931 105.625 119.939 105.625 90.4275C105.625 83.1826 105.264 75.4162 101.327 63.3458C97.3899 51.2758 96.5968 49.7178 92.4338 42.2636C90.6552 57.4754 81.1389 63.8151 78.7213 65.7099C78.7213 63.7387 72.9646 41.9395 64.2362 28.8963C55.6677 16.0931 44.0147 7.69333 37.182 2C37.182 12.8156 34.1996 28.8963 29.9285 37.0897C25.6574 45.2831 24.8553 45.5815 19.5203 51.6789C14.1857 57.7762 11.737 59.6594 7.27593 67.0576C2.81505 74.4561 2 84.31 2 91.5549C2 121.066 25.3686 142.931 53.8128 142.931Z" fill="black" stroke="black" stroke-width="3" stroke-linejoin="round"/>
<path d="M53.8128 134.917C78.8438 134.917 99.4075 115.081 99.4075 89.6201C99.4075 83.3696 99.0899 76.6692 95.6253 66.2556C92.1606 55.8422 91.4627 54.4981 87.7993 48.067C86.2341 61.1908 77.8598 66.6604 75.7323 68.2952C75.7323 66.5945 70.6664 47.7873 62.9854 36.5344C55.4452 25.4885 45.1905 18.2416 39.1777 13.3297C39.1777 22.6609 36.5532 36.5344 32.7946 43.6032C29.036 50.672 28.3302 50.9295 23.6354 56.1899C18.9409 61.4504 16.7861 63.0751 12.8603 69.4579C8.93477 75.8409 8.21753 84.3423 8.21753 90.5928C8.21753 116.054 28.7819 134.917 53.8128 134.917Z" fill="#09090B" stroke="url(#paint0_linear_48_43)" stroke-width="3" stroke-linejoin="round"/>
<defs>
<linearGradient id="paint0_linear_48_43" x1="53.8125" y1="13.3297" x2="53.8125" y2="134.917" gradientUnits="userSpaceOnUse">
<stop stop-color="#FC6C0B"/>
<stop offset="1" stop-color="#FC2681"/>
</linearGradient>
</defs>
</svg>
