<svg width="101" height="47" viewBox="0 0 101 47" fill="none" xmlns="http://www.w3.org/2000/svg">
<path d="M11.1094 19.3254V37.8166H6.17041V19.3254H11.1094ZM5.86279 14.506C5.86279 13.7883 6.11344 13.1958 6.61475 12.7287C7.11605 12.2616 7.78825 12.028 8.63135 12.028C9.46305 12.028 10.1296 12.2616 10.6309 12.7287C11.1436 13.1958 11.3999 13.7883 11.3999 14.506C11.3999 15.2238 11.1436 15.8163 10.6309 16.2834C10.1296 16.7505 9.46305 16.9841 8.63135 16.9841C7.78825 16.9841 7.11605 16.7505 6.61475 16.2834C6.11344 15.8163 5.86279 15.2238 5.86279 14.506ZM26.8833 19.3254H31.3438V37.2014C31.3438 38.8876 30.9678 40.3174 30.2158 41.4909C29.4753 42.6758 28.4385 43.5702 27.1055 44.174C25.7725 44.7892 24.223 45.0969 22.457 45.0969C21.6823 45.0969 20.862 44.9943 19.9961 44.7892C19.1416 44.5842 18.3213 44.2652 17.5352 43.8322C16.7604 43.3993 16.111 42.8524 15.5869 42.1916L17.7573 39.2863C18.327 39.9471 18.9878 40.4598 19.7397 40.8244C20.4917 41.2004 21.3234 41.3884 22.2349 41.3884C23.1235 41.3884 23.8755 41.2232 24.4907 40.8928C25.106 40.5738 25.5788 40.1009 25.9092 39.4743C26.2396 38.8591 26.4048 38.1128 26.4048 37.2355V23.5978L26.8833 19.3254ZM14.4419 28.7932V28.4343C14.4419 27.0215 14.6128 25.7398 14.9546 24.5891C15.3078 23.4269 15.8034 22.43 16.4414 21.5983C17.0908 20.7666 17.877 20.1229 18.7998 19.6672C19.7227 19.2114 20.7651 18.9836 21.9272 18.9836C23.1577 18.9836 24.1888 19.2114 25.0205 19.6672C25.8522 20.1229 26.5358 20.7723 27.0713 21.6154C27.6068 22.4471 28.0226 23.4326 28.3188 24.572C28.6265 25.6999 28.8657 26.9361 29.0366 28.2805V29.0666C28.8657 30.354 28.6094 31.5503 28.2676 32.6555C27.9258 33.7606 27.4757 34.729 26.9175 35.5607C26.3592 36.381 25.6642 37.0191 24.8325 37.4748C24.0122 37.9305 23.0324 38.1584 21.8931 38.1584C20.7537 38.1584 19.7227 37.9248 18.7998 37.4577C17.8883 36.9906 17.1079 36.3355 16.4585 35.4924C15.8091 34.6493 15.3078 33.6581 14.9546 32.5187C14.6128 31.3794 14.4419 30.1376 14.4419 28.7932ZM19.3638 28.4343V28.7932C19.3638 29.5565 19.4378 30.2686 19.5859 30.9294C19.734 31.5902 19.9619 32.1769 20.2695 32.6896C20.5885 33.1909 20.9816 33.584 21.4487 33.8688C21.9272 34.1423 22.4912 34.279 23.1406 34.279C24.0407 34.279 24.7756 34.091 25.3452 33.715C25.9149 33.3277 26.3421 32.7979 26.627 32.1257C26.9118 31.4535 27.077 30.6787 27.1226 29.8015V27.5627C27.0998 26.8449 27.0029 26.2012 26.832 25.6315C26.6611 25.0505 26.4219 24.5549 26.1143 24.1447C25.8066 23.7346 25.4079 23.4155 24.918 23.1877C24.4281 22.9598 23.847 22.8459 23.1748 22.8459C22.5254 22.8459 21.9614 22.994 21.4829 23.2902C21.0158 23.5751 20.6227 23.9681 20.3037 24.4694C19.9961 24.9707 19.7625 25.5632 19.603 26.2468C19.4435 26.919 19.3638 27.6481 19.3638 28.4343ZM39.9912 23.2731V37.8166H35.0693V19.3254H39.6836L39.9912 23.2731ZM39.2734 27.9216H37.9404C37.9404 26.5544 38.117 25.3239 38.4702 24.2302C38.8234 23.125 39.319 22.1851 39.957 21.4103C40.5951 20.6242 41.3527 20.0261 42.23 19.6159C43.1187 19.1944 44.1099 18.9836 45.2036 18.9836C46.0695 18.9836 46.8613 19.1089 47.5791 19.3596C48.2969 19.6102 48.9121 20.009 49.4248 20.5558C49.9489 21.1027 50.3477 21.8262 50.6211 22.7263C50.9059 23.6263 51.0483 24.7258 51.0483 26.0246V37.8166H46.0923V26.0075C46.0923 25.1872 45.9784 24.5492 45.7505 24.0934C45.5226 23.6377 45.1865 23.3187 44.7422 23.1364C44.3092 22.9427 43.7738 22.8459 43.1357 22.8459C42.4749 22.8459 41.8996 22.9769 41.4097 23.239C40.9312 23.501 40.5324 23.8656 40.2134 24.3327C39.9058 24.7884 39.6722 25.3239 39.5127 25.9391C39.3532 26.5544 39.2734 27.2152 39.2734 27.9216ZM65.7285 33.3903V19.3254H70.6504V37.8166H66.019L65.7285 33.3903ZM66.2754 29.5964L67.728 29.5622C67.728 30.7927 67.5856 31.9377 67.3008 32.9973C67.016 34.0454 66.5887 34.9569 66.019 35.7316C65.4494 36.495 64.7316 37.0931 63.8657 37.5261C62.9998 37.9476 61.9801 38.1584 60.8066 38.1584C59.9066 38.1584 59.0749 38.0331 58.3115 37.7824C57.5596 37.5204 56.9102 37.1159 56.3633 36.569C55.8278 36.0108 55.4062 35.2987 55.0986 34.4328C54.8024 33.5555 54.6543 32.5016 54.6543 31.2712V19.3254H59.5762V31.3054C59.5762 31.8522 59.6388 32.3137 59.7642 32.6896C59.9009 33.0656 60.0889 33.3732 60.3281 33.6125C60.5674 33.8517 60.8465 34.0226 61.1655 34.1252C61.4959 34.2277 61.8605 34.279 62.2593 34.279C63.2733 34.279 64.0708 34.0739 64.6519 33.6638C65.2443 33.2536 65.6602 32.6953 65.8994 31.989C66.1501 31.2712 66.2754 30.4737 66.2754 29.5964ZM84.4077 32.7067C84.4077 32.3535 84.3052 32.0345 84.1001 31.7497C83.895 31.4649 83.5133 31.2028 82.9551 30.9636C82.4082 30.7129 81.6164 30.485 80.5796 30.28C79.6453 30.0749 78.7738 29.8185 77.9648 29.5109C77.1673 29.1919 76.4723 28.8102 75.8799 28.3659C75.2988 27.9216 74.8431 27.3975 74.5127 26.7936C74.1823 26.1784 74.0171 25.4777 74.0171 24.6916C74.0171 23.9168 74.1823 23.1877 74.5127 22.5041C74.8545 21.8205 75.3387 21.2167 75.9653 20.6926C76.6034 20.1571 77.3781 19.7412 78.2896 19.445C79.2124 19.1374 80.2492 18.9836 81.3999 18.9836C83.0063 18.9836 84.3849 19.2399 85.5356 19.7526C86.6978 20.2653 87.5864 20.9717 88.2017 21.8718C88.8283 22.7604 89.1416 23.7744 89.1416 24.9138H84.2197C84.2197 24.4352 84.1172 24.008 83.9121 23.632C83.7184 23.2446 83.4108 22.9427 82.9893 22.7263C82.5791 22.4984 82.0436 22.3845 81.3828 22.3845C80.8359 22.3845 80.3631 22.4813 79.9644 22.675C79.5656 22.8573 79.258 23.1079 79.0415 23.4269C78.8364 23.7346 78.7339 24.0764 78.7339 24.4523C78.7339 24.7372 78.7909 24.9935 78.9048 25.2214C79.0301 25.4378 79.2295 25.6372 79.5029 25.8195C79.7764 26.0018 80.1296 26.1727 80.5625 26.3322C81.0068 26.4803 81.5537 26.617 82.2031 26.7424C83.5361 27.0158 84.7267 27.3747 85.7749 27.819C86.8231 28.252 87.6548 28.8444 88.27 29.5964C88.8853 30.3369 89.1929 31.3111 89.1929 32.5187C89.1929 33.3391 89.0106 34.091 88.646 34.7746C88.2814 35.4582 87.7573 36.0563 87.0737 36.569C86.3901 37.0703 85.5698 37.4634 84.6128 37.7482C83.6672 38.0217 82.6019 38.1584 81.417 38.1584C79.6966 38.1584 78.2383 37.8508 77.042 37.2355C75.8571 36.6203 74.957 35.8399 74.3418 34.8942C73.738 33.9372 73.436 32.9574 73.436 31.9548H78.1016C78.1243 32.627 78.2952 33.1682 78.6143 33.5783C78.9447 33.9885 79.3605 34.2847 79.8618 34.467C80.3745 34.6493 80.9271 34.7404 81.5195 34.7404C82.1576 34.7404 82.6873 34.655 83.1089 34.4841C83.5304 34.3018 83.8494 34.0625 84.0659 33.7663C84.2938 33.4587 84.4077 33.1055 84.4077 32.7067Z" fill="#F8FAFC"/>
<path d="M92.6279 35.4411C92.6279 34.7119 92.8786 34.1024 93.3799 33.6125C93.8926 33.1226 94.5705 32.8776 95.4136 32.8776C96.2567 32.8776 96.9289 33.1226 97.4302 33.6125C97.9429 34.1024 98.1992 34.7119 98.1992 35.4411C98.1992 36.1703 97.9429 36.7798 97.4302 37.2697C96.9289 37.7596 96.2567 38.0046 95.4136 38.0046C94.5705 38.0046 93.8926 37.7596 93.3799 37.2697C92.8786 36.7798 92.6279 36.1703 92.6279 35.4411Z" fill="#FC208A"/>
<path d="M8.5 16.0833C11.4165 16.0833 13.8124 13.7721 13.8124 10.8056C13.8124 10.0773 13.7754 9.29661 13.3717 8.08327C12.9681 6.86997 12.8867 6.71336 12.4599 5.96405C12.2775 7.49316 11.3018 8.13045 11.0539 8.32092C11.0539 8.12276 10.4637 5.93146 9.56873 4.62034C8.69019 3.33333 7.49537 2.48897 6.79479 1.91666C6.79479 3.00387 6.48901 4.62034 6.05108 5.44395C5.61315 6.26757 5.53091 6.29756 4.9839 6.91049C4.43693 7.52341 4.18586 7.71271 3.72845 8.45639C3.27107 9.2001 3.1875 10.1906 3.1875 10.9189C3.1875 13.8854 5.58354 16.0833 8.5 16.0833Z" fill="#09090B" stroke="url(#paint0_linear_48_53)" stroke-width="2" stroke-linejoin="round"/>
<defs>
<linearGradient id="paint0_linear_48_53" x1="8.49996" y1="1.91666" x2="8.49996" y2="16.0833" gradientUnits="userSpaceOnUse">
<stop stop-color="#FC6C0B"/>
<stop offset="1" stop-color="#FC2681"/>
</linearGradient>
</defs>
</svg>
